<svg id="A_2x2_" data-name="A[2x2]" xmlns="http://www.w3.org/2000/svg" viewBox="0 0 475.72 597.68"><defs><style>.cls-1,.cls-2,.cls-3{fill:none;stroke-linecap:round;stroke-linejoin:round;stroke-width:0.25px;}.cls-1{stroke:#000;}.cls-2{stroke:#06ff00;}.cls-3{stroke:#ff8600;}</style></defs><title>2x2-1-test [Converted]</title><polyline class="cls-1" points="263.94 373.77 158.11 374.13 158.11 476.31 263.94 476.31"/><polyline class="cls-1" points="52.37 456.06 0.13 456.06 0.13 504.1 52.63 504.1"/><polyline class="cls-1" points="158.41 120.71 210.65 120.71 210.65 72.67 158.15 72.67"/><polyline class="cls-1" points="157.6 184.91 52.28 183.9 52.28 298.69 474.98 298.69 474.98 410.95 370.1 410.95"/><polyline class="cls-1" points="370.43 504.1 422.68 504.1 422.68 456.06 370.17 456.06"/><polyline class="cls-1" points="263.73 232 315.97 232 315.97 183.96 263.46 183.96"/><line class="cls-2" x1="263.94" y1="476.31" x2="263.94" y2="597.56"/><line class="cls-2" x1="158.01" y1="184.91" x2="158.11" y2="121.06"/><polyline class="cls-2" points="474.98 504.1 475.59 410.95 474.98 539.12 475.59 597.25"/><line class="cls-2" x1="158.11" y1="0.13" x2="158.11" y2="72.94"/><line class="cls-2" x1="263.94" y1="373.63" x2="263.94" y2="298.51"/><polyline class="cls-2" points="474.98 152.2 475.59 3.27 474.98 208.2 475.59 301.13"/><line class="cls-3" x1="370.43" y1="504.1" x2="370.94" y2="597.25"/><line class="cls-3" x1="263.94" y1="298.51" x2="263.73" y2="232"/><line class="cls-3" x1="263.47" y1="183.96" x2="263.94" y2="0.13"/><line class="cls-3" x1="52.28" y1="0.13" x2="52.28" y2="183.9"/><line class="cls-3" x1="52.28" y1="504.1" x2="52.28" y2="597.25"/><line class="cls-3" x1="52.37" y1="456.06" x2="52.28" y2="298.69"/><line class="cls-3" x1="370.17" y1="456.06" x2="370.1" y2="410.95"/></svg>