<svg id="B_2x2_" data-name="B[2x2]" xmlns="http://www.w3.org/2000/svg" viewBox="0 0 846.88 582.67"><defs><style>.cls-1,.cls-2,.cls-3{fill:none;stroke-linecap:round;stroke-linejoin:round;stroke-width:0.25px;}.cls-1{stroke:#000;}.cls-2{stroke:#06ff00;}.cls-3{stroke:#ff8600;}</style></defs><title>2x2-2-test [Converted]</title><polyline class="cls-1" points="635.33 461.61 556.69 461.61 556.69 345.7 505.82 345.69 505.82 334.65 464.31 284.48 423.44 322.02 423.44 334.65 401.82 334.65 401.82 358.95 423.55 358.96 423.55 396.25 345.13 396.25 344.81 321.61 264.7 321.61 264.7 358.81 211.78 358.78"/><polyline class="cls-1" points="211.78 520.65 180.71 520.65 180.71 582.55"/><polyline class="cls-1" points="846.75 13.39 809.54 13.39 809.54 106.36 772.32 106.36 772.32 49.93 747.16 49.93 697.11 0.13 634.45 51.9 634.43 79.32 582.18 78.85 582.18 169.42 559.2 169.42 559.2 125.84 542.96 125.84 542.96 45.86 529.27 45.86 529.27 36.54 476.35 37.15 476.35 106.36 476.35 106.36 440.32 50.3 423.44 50.17 406.73 50.3 371.05 106.36 370.59 0.13 317.61 0.13 317.61 50.3 291.15 50.3 291.15 144.33 256.97 144.33 256.97 33.58 211.78 33.58 211.78 106.36 193.48 106.36 153.51 72.86 143.01 72.86 143.01 50.3 118.25 50.3 62.62 120.53 31.37 120.53 31.37 72.86 0.13 72.86"/><polyline class="cls-1" points="423.48 520.81 455.27 520.81 455.27 582.55"/><line class="cls-2" x1="423.44" y1="50.17" x2="423.44" y2="321.72"/><line class="cls-2" x1="211.78" y1="358.78" x2="211.78" y2="520.81"/><line class="cls-3" x1="423.47" y1="520.52" x2="423.55" y2="396.25"/><line class="cls-3" x1="635.33" y1="461.61" x2="634.43" y2="79.32"/></svg>