<svg id="B::valley" xmlns="http://www.w3.org/2000/svg" viewBox="0 0 813.4 583.42"><defs><style>.cls-1,.cls-2,.cls-3{fill:none;stroke-linecap:round;stroke-linejoin:round;}.cls-1{stroke:#06ff00;}.cls-2{stroke:#ff8600;}.cls-3{stroke:#000;}</style></defs><title>popup_B [Converted] [Converted]</title><line class="cls-1" x1="196.53" y1="359.15" x2="196.53" y2="521.03"/><line class="cls-1" x1="408.19" y1="50.44" x2="408.19" y2="322.39"/><line class="cls-2" x1="408.23" y1="521.19" x2="408.3" y2="396.62"/><line class="cls-2" x1="620.08" y1="461.99" x2="619.59" y2="79.59"/><polyline class="cls-3" points="812.89 13.76 794.29 13.76 794.29 106.73 757.07 106.73 757.07 50.31 731.91 50.31 681.86 0.5 619.2 52.27 619.18 79.7 566.93 79.23 566.93 169.79 543.95 169.79 543.95 126.22 527.71 126.22 527.71 46.24 514.02 46.24 514.02 36.91 461.1 37.53 461.1 106.73 461.1 106.73 425.07 50.68 408.19 50.55 391.48 50.68 355.8 106.73 355.34 0.5 302.36 0.5 302.36 50.68 275.9 50.68 275.9 144.71 241.72 144.71 241.72 33.95 196.53 33.95 196.53 106.73 178.23 106.73 138.26 73.23 127.76 73.23 127.76 50.68 103 50.68 47.37 120.91 16.13 120.91 16.13 73.23 0.5 73.23"/><polyline class="cls-3" points="408.23 521.19 440.02 521.19 440.02 582.92"/><polyline class="cls-3" points="196.53 521.03 165.46 521.03 165.46 582.92"/><polyline class="cls-3" points="620.08 461.99 541.44 461.99 541.44 346.08 490.57 346.06 490.57 335.02 449.06 284.86 408.19 322.39 408.19 335.02 386.57 335.02 386.57 359.32 408.3 359.34 408.3 396.62 329.88 396.62 329.56 321.98 249.45 321.98 249.45 359.19 196.53 359.15"/></svg>