<svg id="O::valley" xmlns="http://www.w3.org/2000/svg" viewBox="0 0 847.63 598.12"><defs><style>.cls-1,.cls-2,.cls-3{fill:none;stroke-linecap:round;stroke-linejoin:round;}.cls-1{stroke:#06ff00;}.cls-2{stroke:#ff8600;}.cls-3{stroke:#000;}</style></defs><title>popup_O [Converted] [Converted]</title><line class="cls-1" x1="423.81" y1="121.43" x2="423.41" y2="299.05"/><line class="cls-1" x1="423.41" y1="476.86" x2="423.81" y2="597.62"/><line class="cls-1" x1="635.07" y1="299.05" x2="635.07" y2="597.62"/><line class="cls-2" x1="211.76" y1="299.33" x2="211.76" y2="597.62"/><line class="cls-2" x1="741.27" y1="299.05" x2="741.27" y2="597.62"/><line class="cls-2" x1="529.24" y1="476.86" x2="529.24" y2="597.62"/><line class="cls-2" x1="635.07" y1="121.43" x2="635.07" y2="299.05"/><line class="cls-2" x1="423.81" y1="0.5" x2="423.81" y2="121.43"/><polyline class="cls-3" points="635.07 121.43 105.42 121.43 105.86 299.33 211.75 299.33"/><polyline class="cls-3" points="847.13 11.4 795.15 11.4 795.15 35.01 685.84 35.01 685.84 62.01 670.99 62.01 670.99 11.4 637.92 11.4 637.92 28.94 616.33 28.94 616.33 47.16 560.32 47.16 560.32 68.75 446.28 68.75 446.28 11.4 423.81 11.4"/><polyline class="cls-3" points="423.81 39.93 384.43 39.93 384.43 88.27 269.23 88.27 269.23 17.3 220.89 17.3 220.89 60.97 90.27 60.97 90.27 41.99 67.64 41.99 67.64 18.33 21.36 18.33 21.36 86.22 0.5 86.22"/><polyline class="cls-3" points="741.27 299.05 423.41 299.05 423.41 476.86 529.24 476.86"/></svg>