<svg id="L::valley" xmlns="http://www.w3.org/2000/svg" viewBox="0 0 636.03 598.12"><defs><style>.cls-1,.cls-2,.cls-3{fill:none;stroke-linecap:round;stroke-linejoin:round;}.cls-1{stroke:#06ff00;}.cls-2{stroke:#ff8600;}.cls-3{stroke:#000;}</style></defs><title>popup_L [Converted] [Converted]</title><line class="cls-1" x1="423.9" y1="121.43" x2="423.9" y2="0.5"/><line class="cls-1" x1="212.24" y1="374.06" x2="212.04" y2="224.3"/><line class="cls-1" x1="0.5" y1="121.43" x2="0.5" y2="0.5"/><line class="cls-1" x1="635.53" y1="476.69" x2="635.53" y2="597.62"/><line class="cls-1" x1="635.53" y1="374.06" x2="635.53" y2="0.5"/><line class="cls-1" x1="212.04" y1="121.43" x2="212.04" y2="0.5"/><line class="cls-1" x1="0.5" y1="224.3" x2="0.5" y2="597.62"/><line class="cls-1" x1="423.69" y1="374.06" x2="423.69" y2="224.87"/><line class="cls-1" x1="212.24" y1="476.69" x2="212.24" y2="597.62"/><line class="cls-1" x1="423.69" y1="476.69" x2="423.69" y2="597.62"/><line class="cls-1" x1="106.25" y1="121.43" x2="106.25" y2="224.3"/><line class="cls-1" x1="529.52" y1="476.69" x2="529.52" y2="374.06"/><line class="cls-2" x1="529.52" y1="121.43" x2="529.52" y2="0.5"/><line class="cls-2" x1="529.52" y1="476.69" x2="529.52" y2="597.62"/><line class="cls-2" x1="212.24" y1="476.69" x2="212.24" y2="374.06"/><line class="cls-2" x1="318.27" y1="121.43" x2="318.27" y2="0.5"/><line class="cls-2" x1="423.69" y1="224.87" x2="423.9" y2="121.43"/><line class="cls-2" x1="318.27" y1="224.87" x2="318.27" y2="374.06"/><line class="cls-2" x1="318.27" y1="476.69" x2="318.27" y2="597.62"/><line class="cls-2" x1="106.25" y1="476.69" x2="106.25" y2="597.62"/><line class="cls-2" x1="106.25" y1="121.43" x2="106.25" y2="0.5"/><line class="cls-2" x1="106.25" y1="224.3" x2="106.25" y2="374.06"/><line class="cls-2" x1="529.52" y1="224.87" x2="529.52" y2="374.06"/><line class="cls-2" x1="529.52" y1="224.87" x2="529.52" y2="374.06"/><line class="cls-2" x1="529.52" y1="121.43" x2="529.52" y2="0.5"/><line class="cls-2" x1="529.52" y1="476.69" x2="529.52" y2="597.62"/><line class="cls-2" x1="212.24" y1="476.69" x2="212.24" y2="374.06"/><line class="cls-2" x1="318.27" y1="121.43" x2="318.27" y2="0.5"/><line class="cls-2" x1="423.69" y1="224.87" x2="423.9" y2="121.43"/><line class="cls-2" x1="318.27" y1="224.87" x2="318.27" y2="374.06"/><line class="cls-2" x1="318.27" y1="476.69" x2="318.27" y2="597.62"/><line class="cls-2" x1="106.25" y1="121.43" x2="106.25" y2="0.5"/><line class="cls-2" x1="106.25" y1="224.3" x2="106.25" y2="374.06"/><line class="cls-2" x1="106.25" y1="476.69" x2="106.25" y2="597.62"/><line class="cls-3" x1="635.53" y1="476.69" x2="423.69" y2="476.69"/><line class="cls-3" x1="318.27" y1="224.87" x2="529.52" y2="224.87"/><line class="cls-3" x1="423.69" y1="374.06" x2="635.53" y2="374.06"/><line class="cls-3" x1="0.5" y1="224.3" x2="212.04" y2="224.3"/><line class="cls-3" x1="0.5" y1="121.43" x2="212.04" y2="121.43"/><line class="cls-3" x1="318.27" y1="374.06" x2="106.21" y2="374.06"/><line class="cls-3" x1="318.27" y1="476.69" x2="106.21" y2="476.69"/><line class="cls-3" x1="318.27" y1="121.43" x2="529.52" y2="121.43"/></svg>