<svg id="A::valley" xmlns="http://www.w3.org/2000/svg" viewBox="0 0 609.34 598.12"><defs><style>.cls-1,.cls-2,.cls-3{fill:none;stroke-linecap:round;stroke-linejoin:round;opacity:0.31;}.cls-1{stroke:#06ff00;}.cls-2{stroke:#ff8600;}.cls-3{stroke:#000;}</style></defs><title>popup_E [Converted]</title><line class="cls-1" x1="92.86" y1="477.32" x2="92.86" y2="597.62"/><line class="cls-1" x1="516.17" y1="195.27" x2="516.17" y2="240.74"/><line class="cls-1" x1="516.17" y1="383.06" x2="516.17" y2="597.62"/><line class="cls-1" x1="92.86" y1="196.19" x2="92.86" y2="336.43"/><line class="cls-1" x1="304.51" y1="195.73" x2="304.91" y2="0.5"/><line class="cls-1" x1="304.51" y1="381.65" x2="304.55" y2="335.74"/><line class="cls-2" x1="304.51" y1="240.77" x2="304.51" y2="195.73"/><line class="cls-2" x1="304.91" y1="597.62" x2="304.91" y2="476.69"/><polyline class="cls-3" points="516.17 383.06 608.84 383.06 607.96 240.8 516.17 240.74"/><polyline class="cls-3" points="304.91 476.69 397.58 476.69 396.7 335.81 304.55 335.74"/><polyline class="cls-3" points="304.51 381.65 197.94 381.65 197.43 240.7 304.51 240.77"/><polyline class="cls-3" points="92.86 477.32 1.01 477.32 0.5 336.37 92.86 336.43"/><line class="cls-3" x1="92.86" y1="196.19" x2="516.17" y2="195.27"/></svg>