<svg id="F::valley" xmlns="http://www.w3.org/2000/svg" viewBox="0 0 476.47 598.43"><defs><style>.cls-1,.cls-2,.cls-3{fill:none;stroke-linecap:round;stroke-linejoin:round;}.cls-1{stroke:#06ff00;}.cls-2{stroke:#ff8600;}.cls-3{stroke:#000;}</style></defs><title>popup_F[Converted] [Converted]</title><line class="cls-1" x1="475.36" y1="299.06" x2="475.36" y2="0.5"/><polyline class="cls-1" points="475.36 299.06 475.36 411.32 475.36 411.32 475.97 597.62"/><line class="cls-1" x1="264.31" y1="476.69" x2="264.31" y2="597.93"/><line class="cls-1" x1="158.39" y1="185.29" x2="158.48" y2="121.43"/><line class="cls-1" x1="264.31" y1="374" x2="264.31" y2="298.89"/><line class="cls-1" x1="158.48" y1="0.5" x2="158.48" y2="73.32"/><line class="cls-2" x1="263.84" y1="184.34" x2="264.31" y2="0.5"/><line class="cls-2" x1="370.81" y1="504.47" x2="371.31" y2="597.62"/><line class="cls-2" x1="52.74" y1="456.43" x2="52.65" y2="299.06"/><line class="cls-2" x1="370.55" y1="456.43" x2="370.47" y2="411.32"/><line class="cls-2" x1="264.31" y1="298.89" x2="264.1" y2="232.38"/><line class="cls-2" x1="52.65" y1="0.5" x2="52.65" y2="184.27"/><line class="cls-2" x1="52.65" y1="504.47" x2="52.65" y2="597.62"/><polyline class="cls-3" points="264.1 232.38 316.35 232.38 316.35 184.34 263.84 184.34"/><polyline class="cls-3" points="158.78 121.09 211.03 121.09 211.03 73.05 158.52 73.05"/><polyline class="cls-3" points="264.31 374.15 158.48 374.5 158.48 476.69 264.31 476.69"/><polyline class="cls-3" points="370.81 504.47 423.05 504.47 423.05 456.44 370.55 456.44"/><polyline class="cls-3" points="157.97 185.29 52.65 184.27 52.65 299.06 475.36 299.06 475.36 411.32 370.47 411.32"/><polyline class="cls-3" points="52.74 456.44 0.5 456.44 0.5 504.47 53.01 504.47"/></svg>