<svg id="I::valley" xmlns="http://www.w3.org/2000/svg" viewBox="0 0 670.88 598.12"><defs><style>.cls-1,.cls-2,.cls-3{fill:none;stroke-linecap:round;stroke-linejoin:round;}.cls-1{stroke:#06ff00;}.cls-2{stroke:#ff8600;}.cls-3{stroke:#000;}</style></defs><title>popup_I [Converted] [Converted]</title><line class="cls-1" x1="547.55" y1="336.68" x2="547.55" y2="261.74"/><line class="cls-1" x1="335.89" y1="411.32" x2="336.29" y2="597.62"/><line class="cls-1" x1="336.29" y1="0.5" x2="336.29" y2="184.69"/><line class="cls-1" x1="124.23" y1="336.68" x2="124.23" y2="261.74"/><line class="cls-2" x1="124.23" y1="476.69" x2="124.23" y2="411.32"/><line class="cls-2" x1="336.29" y1="336.68" x2="336.29" y2="261.74"/><line class="cls-2" x1="547.55" y1="185.11" x2="547.55" y2="121.43"/><line class="cls-3" x1="336.29" y1="336.68" x2="547.55" y2="336.68"/><line class="cls-3" x1="124.23" y1="261.74" x2="336.29" y2="261.74"/><line class="cls-3" x1="335.89" y1="411.32" x2="336.29" y2="336.68"/><line class="cls-3" x1="336.29" y1="184.69" x2="336.29" y2="261.74"/><polyline class="cls-3" points="547.55 261.74 670.38 261.74 669.62 121.43 547.55 121.43"/><polyline class="cls-3" points="124.23 476.69 0.94 476.69 0.5 336.68 124.23 336.68"/><line class="cls-3" x1="124.23" y1="411.32" x2="335.89" y2="411.32"/><line class="cls-3" x1="336.29" y1="184.69" x2="547.55" y2="185.11"/></svg>