<svg id="D::valley" xmlns="http://www.w3.org/2000/svg" viewBox="0 0 838.87 583.42"><defs><style>.cls-1,.cls-2,.cls-3{fill:none;stroke-linecap:round;stroke-linejoin:round;}.cls-1{stroke:#06ff00;}.cls-2{stroke:#ff8600;}.cls-3{stroke:#000;}</style></defs><title>popup_D [Converted] [Converted]</title><line class="cls-1" x1="303.67" y1="73.24" x2="303.67" y2="322.39"/><line class="cls-1" x1="144" y1="359.04" x2="144" y2="582.4"/><line class="cls-2" x1="515.56" y1="461.99" x2="514.93" y2="106.73"/><line class="cls-2" x1="356.02" y1="521.19" x2="356.02" y2="582.92"/><polyline class="cls-3" points="515.56 461.99 436.93 461.99 436.93 346.08 386.06 346.06 386.06 335.02 344.54 284.86 303.67 322.39 303.67 335.02 327.96 335.02 327.96 359.32 303.78 359.34 303.78 396.62 265.89 396.62 265.57 321.98 209.81 321.98 209.81 359.19 144 359.15"/><polyline class="cls-3" points="356.02 521.19 303.71 521.19 303.78 396.62"/><polyline class="cls-3" points="838.38 2.66 778.33 52.27 778.31 79.7 726.06 79.23 726.06 169.79 703.08 169.79 703.08 126.22 686.84 126.22 686.84 46.24 673.15 46.24 673.15 36.91 620.23 37.53 620.23 106.73 620.23 106.73 584.2 142.13 567.32 142 550.61 142.13 514.93 106.73 514.47 0.5 461.49 0.5 461.49 50.68 435.03 50.68 435.03 140.66 400.85 140.66 400.85 33.95 355.66 33.95 355.66 106.73 337.36 106.73 303.85 73.23 270.98 73.23 270.98 50.68 206.61 50.68 206.5 120.91 175.25 120.91 175.25 73.23 144 73.23 143.89 13.76 106.67 13.76 106.67 106.73 69.45 106.73 69.45 50.31 44.29 50.31 0.5 6.73"/></svg>