<svg id="Make2D::Visible::Curves" xmlns="http://www.w3.org/2000/svg" viewBox="0 0 847.63 598.12"><defs><style>.cls-1,.cls-2,.cls-3,.cls-4{fill:none;stroke-linecap:round;stroke-linejoin:round;opacity:0.57;}.cls-1{stroke:#ff8600;}.cls-2{stroke:#000;}.cls-3{stroke:blue;}.cls-4{stroke:#06ff00;}</style></defs><title>popup_A [Converted]</title><line class="cls-1" x1="423.41" y1="298.59" x2="423.41" y2="335.74"/><line class="cls-2" x1="211.76" y1="299.06" x2="635.07" y2="298.14"/><rect class="cls-3" x="0.5" y="0.5" width="846.63" height="597.12"/><line class="cls-4" x1="423.41" y1="298.59" x2="423.41" y2="261.74"/><polyline class="cls-2" points="211.75 477.31 119.91 477.31 119.4 336.36 211.75 336.43"/><line class="cls-4" x1="423.41" y1="120.86" x2="423.81" y2="0.5"/><polyline class="cls-2" points="635.07 262.42 727.74 262.42 726.86 120.16 635.07 120.09"/><line class="cls-1" x1="423.81" y1="597.62" x2="423.81" y2="476.69"/><line class="cls-1" x1="635.07" y1="298.14" x2="635.07" y2="262.42"/><line class="cls-1" x1="635.07" y1="120.09" x2="635.07" y2="0.5"/><polyline class="cls-2" points="423.41 261.74 316.84 261.74 316.33 120.79 423.41 120.86"/><line class="cls-4" x1="211.76" y1="299.06" x2="211.76" y2="336.43"/><polyline class="cls-2" points="423.81 476.69 516.48 476.69 515.6 335.81 423.41 335.74"/><line class="cls-4" x1="211.76" y1="477.31" x2="211.76" y2="597.62"/></svg>