<?xml version="1.0" encoding="UTF-8" standalone="no"?>
<!DOCTYPE svg PUBLIC "-//W3C//DTD SVG 1.1//EN" "http://www.w3.org/Graphics/SVG/1.1/DTD/svg11.dtd">
<svg width="100%" height="100%" viewBox="0 0 841.92 595.2" version="1.1" xmlns="http://www.w3.org/2000/svg">
  <path d="M629.9933,151.8092 C600.5056,122.7818 564.0651,99.5901 525.2719,85.16156 C460.0059,60.0182 381.1068,60.0182 315.8408,85.16156 C277.0553,99.5901 240.619,122.7818 211.1311,151.8092" stroke="#000000" stroke-width="0.24" fill-opacity="0" />
  <path d="M211.1311,442.473 C240.6192,471.5004 277.029,494.6864 315.7644,509.104 C381.0304,534.2474 459.9295,534.2474 525.1955,509.104 C564.0388,494.6864 600.5058,471.5004 629.9933,442.473" stroke="#000000" stroke-width="0.24" fill-opacity="0" />
  <path d="M211.1311,84.14454 C183.5001,111.082 160.2999,144.8911 144.7499,181.9133 C129.1998,218.9356 121.2999,259.171 121.4087,297.7598 C121.2999,336.3485 129.1998,376.584 144.7499,413.6062 C160.2999,450.6284 183.5001,484.4375 211.1311,511.375" stroke="#000000" stroke-width="0.24" fill-opacity="0" />
  <path d="M629.9933,511.375 C657.6244,484.4375 680.8245,450.6284 696.3746,413.6062 C711.9246,376.584 719.8246,336.3485 719.7158,297.7598 C719.8246,259.171 711.9246,218.9356 696.3746,181.9133 C680.8245,144.8911 657.6244,111.082 629.9933,84.14454" stroke="#000000" stroke-width="0.24" fill-opacity="0" />
  <path d="M2.097821,593.0211 L839.8222,593.0211 L839.8222,2.178967 L2.097821,2.178967 z" stroke="#0000FF" stroke-width="0.24" fill-opacity="0" />
  <path d="M211.1312,84.14456 L211.1312,151.8093" stroke="#FF8600" stroke-width="0.24" fill-opacity="0" />
  <path d="M629.9933,442.473 L629.9933,511.375" stroke="#FF8600" stroke-width="0.24" fill-opacity="0" />
  <path d="M211.1312,511.375 L211.1312,442.473" stroke="#FF8600" stroke-width="0.24" fill-opacity="0" />
  <path d="M629.9933,84.14456 L629.9933,151.8093" stroke="#FF8600" stroke-width="0.24" fill-opacity="0" />
  <path d="M420.5564,66.23562 L420.48,528.03" stroke="#FF8600" stroke-width="0.24" fill-opacity="0" />
  <path d="M420.48,528.03 L420.96,593.0211" stroke="#06FF00" stroke-width="0.24" fill-opacity="0" />
  <path d="M420.5564,66.23562 L420.5564,2.178967" stroke="#06FF00" stroke-width="0.24" fill-opacity="0" />
</svg>