<svg id="J::valley" xmlns="http://www.w3.org/2000/svg" viewBox="0 0 742.15 598.12"><defs><style>.cls-1,.cls-2,.cls-3{fill:none;stroke-linecap:round;stroke-linejoin:round;}.cls-1{stroke:#06ff00;}.cls-2{stroke:#ff8600;}.cls-3{stroke:#000;}</style></defs><title>popup_J [Converted] [Converted]</title><line class="cls-1" x1="317.84" y1="335.9" x2="317.84" y2="597.62"/><line class="cls-1" x1="0.5" y1="335.68" x2="0.5" y2="597.62"/><line class="cls-1" x1="741.65" y1="336.2" x2="741.65" y2="597.62"/><line class="cls-1" x1="212.01" y1="335.83" x2="212.01" y2="597.62"/><line class="cls-1" x1="106.33" y1="335.75" x2="106.14" y2="597.62"/><line class="cls-1" x1="53.09" y1="224.32" x2="53.41" y2="335.72"/><line class="cls-1" x1="264.93" y1="224.35" x2="264.93" y2="335.87"/><line class="cls-1" x1="159.1" y1="121.43" x2="159.01" y2="224.33"/><line class="cls-1" x1="582.41" y1="121.43" x2="582.5" y2="224.39"/><line class="cls-1" x1="476.58" y1="224.38" x2="476.68" y2="336"/><line class="cls-1" x1="423.87" y1="335.98" x2="423.87" y2="597.62"/><line class="cls-1" x1="529.5" y1="336.02" x2="529.5" y2="597.62"/><line class="cls-1" x1="688.41" y1="224.41" x2="688.73" y2="336.17"/><line class="cls-1" x1="635.82" y1="336.13" x2="635.82" y2="597.62"/><line class="cls-1" x1="371.16" y1="0.5" x2="370.75" y2="121.43"/><line class="cls-2" x1="476.68" y1="336" x2="476.58" y2="597.62"/><line class="cls-2" x1="159.01" y1="224.33" x2="159.1" y2="597.62"/><line class="cls-2" x1="370.75" y1="121.43" x2="371.16" y2="597.62"/><line class="cls-2" x1="689.02" y1="336.17" x2="690.43" y2="597.62"/><line class="cls-2" x1="53.41" y1="335.72" x2="54.26" y2="597.62"/><line class="cls-2" x1="582.5" y1="224.39" x2="582.41" y2="597.62"/><line class="cls-2" x1="264.93" y1="335.87" x2="264.93" y2="597.62"/><line class="cls-3" x1="53.09" y1="224.32" x2="264.93" y2="224.35"/><line class="cls-3" x1="476.58" y1="224.38" x2="688.41" y2="224.41"/><line class="cls-3" x1="159.1" y1="121.43" x2="582.41" y2="121.43"/><line class="cls-3" x1="423.87" y1="335.98" x2="529.5" y2="336.02"/><line class="cls-3" x1="635.82" y1="336.13" x2="741.65" y2="336.2"/><line class="cls-3" x1="212.01" y1="335.83" x2="317.84" y2="335.9"/><line class="cls-3" x1="0.5" y1="335.68" x2="106.33" y2="335.75"/></svg>