<svg id="K::valley" xmlns="http://www.w3.org/2000/svg" viewBox="0 0 608.85 599.11"><defs><style>.cls-1,.cls-2,.cls-3{fill:none;stroke-linecap:round;stroke-linejoin:round;}.cls-1{stroke:#06ff00;}.cls-2{stroke:#ff8600;}.cls-3{stroke:#000;}</style></defs><title>popup_K [Converted] [Converted]</title><line class="cls-1" x1="516.97" y1="224.39" x2="516.97" y2="299.06"/><line class="cls-1" x1="516.97" y1="411.32" x2="516.97" y2="476.69"/><line class="cls-1" x1="516.97" y1="121.43" x2="516.97" y2="0.5"/><line class="cls-1" x1="305.71" y1="224.36" x2="305.71" y2="299.56"/><line class="cls-1" x1="305.71" y1="411.32" x2="305.71" y2="476.69"/><line class="cls-1" x1="305.71" y1="121.43" x2="305.71" y2="0.5"/><line class="cls-1" x1="93.65" y1="121.43" x2="93.65" y2="0.5"/><line class="cls-1" x1="93.65" y1="299.06" x2="93.65" y2="224.33"/><line class="cls-1" x1="93.65" y1="476.69" x2="93.65" y2="411.32"/><line class="cls-2" x1="608.35" y1="299.06" x2="608.35" y2="0.5"/><line class="cls-2" x1="608.35" y1="411.32" x2="608.35" y2="597.62"/><line class="cls-2" x1="411.14" y1="476.69" x2="411.14" y2="411.32"/><line class="cls-2" x1="411.14" y1="299.56" x2="411.14" y2="224.38"/><line class="cls-2" x1="411.14" y1="121.43" x2="411.14" y2="0.5"/><line class="cls-2" x1="199.48" y1="121.43" x2="199.48" y2="0.5"/><line class="cls-2" x1="199.48" y1="224.35" x2="199.48" y2="299.06"/><line class="cls-2" x1="199.48" y1="411.32" x2="199.48" y2="476.69"/><line class="cls-2" x1="1.62" y1="476.69" x2="1.62" y2="224.32"/><line class="cls-2" x1="0.5" y1="121.43" x2="0.5" y2="0.5"/><polyline class="cls-3" points="93.65 598.61 93.65 476.69 1.62 476.69"/><polyline class="cls-3" points="305.71 597.62 305.71 476.69 199.48 476.69"/><polyline class="cls-3" points="0.5 121.43 93.65 121.43 93.65 224.33 0.82 224.32"/><polyline class="cls-3" points="199.48 121.43 305.71 121.43 305.71 224.36 199.48 224.35"/><polyline class="cls-3" points="411.14 121.43 516.97 121.43 516.97 224.39 411.14 224.38"/><polyline class="cls-3" points="608.35 299.06 516.97 299.06 516.97 411.32 608.35 411.32"/><polyline class="cls-3" points="411.14 299.56 305.71 299.56 305.71 411.32 411.14 411.32"/><polyline class="cls-3" points="199.48 299.06 93.65 299.06 93.65 411.32 199.48 411.32"/><polyline class="cls-3" points="517.25 597.62 516.97 476.69 411.14 476.69"/></svg>